<svg xmlns="http://www.w3.org/2000/svg" xmlns:xlink="http://www.w3.org/1999/xlink"><defs><style>.cls-1{fill:#efb9ab;}.cls-2{fill:#ffe2d4;}.cls-3{fill:#fff9f8;}.cls-4{fill:#4d4d4d;}</style><style>.cls-1{fill:#ffe2d4;}.cls-2{fill:#efb9ab;}.cls-3{fill:#fff9f8;}.cls-4{fill:#fff;}.cls-5{fill:#e6e6e6;}.cls-6{fill:#4d4d4d;}</style><style>.cls-1{fill:#fff;}.cls-2{fill:#ccc;}.cls-3{fill:#a4d9ed;}.cls-4{fill:#70b0c4;}.cls-5{fill:#c5edf9;}.cls-6{fill:#4d4d4d;}</style></defs><symbol id="icon-arm" viewBox="0 0 512 512"><title>arm muscle male</title><path class="cls-1" d="M312.71,149.22l8.66,11.85a14,14,0,0,0,19,3.44l9.07-6A19,19,0,0,0,354.81,132a33.85,33.85,0,0,0-18.55-13.58Z"/><path class="cls-2" d="M491.64,256a233.82,233.82,0,0,0-3.48-40.22c-9.82,44.09-35.89,55.63-35.89,55.63C416.14,248,378.81,256,356.86,272.8c-16.93,13-37.61,21.59-37.61,21.59-50.84-20.89-88.44,15.32-88.44,15.32,7.66-16.71,4.87-32.73,0-70.34s7.66-78,7.66-78c13.93,13.93,34.82-2.08,34.82-2.08L278,163a19.66,19.66,0,0,0,22,1.35L334,144.19a19.65,19.65,0,0,0,6.22-28l-21.76-32A22.09,22.09,0,0,0,290,77.1l-78.18,40.61a36,36,0,0,0-16.68,18.19l-18.65,45c-30.64,68.95-34.82,111.43-34.82,111.43-3.58,23.24-12,47.33-17.62,61.62A22.42,22.42,0,0,0,131.46,380c20.77,15.58,49.21,17.42,49.21,17.42C219.17,414,295,413.5,316.75,413a51.85,51.85,0,0,1,19.06,2.93c25.54,9.31,29.21,33.3,29,47.39A232.72,232.72,0,0,0,491.64,256Z"/><path class="cls-1" d="M308.64,101.7l11.69,17.07a10.15,10.15,0,0,1-3,14.34l-8.94,5.6a13.17,13.17,0,0,0-4.09,18.3l2.23,3.47L334,144.19a19.65,19.65,0,0,0,6.22-28l-21.76-32A21.9,21.9,0,0,0,315.7,81l-3.45,2.28A13.19,13.19,0,0,0,308.64,101.7Z"/><path class="cls-1" d="M436.75,406.08c-11.68-16-23.81-31-41.48-38-14.69-5.81-26.29-17.74-32.16-27.56A11.32,11.32,0,0,0,348,336.28l-4.22,2.28a64.54,64.54,0,0,0,8,34,12.61,12.61,0,0,1-3.52,16.63l-.17.11a12.18,12.18,0,0,1-10.25,1.41,54.65,54.65,0,0,0-18.55-2.47c-49.62,8.82-113.79-7.05-130-11.42a37.22,37.22,0,0,0-7.19-1.19A81.68,81.68,0,0,1,163.84,372a19,19,0,0,0-23.2,11.3l-.84,2.15c19.29,10.65,40.87,12,40.87,12,39.94,17.2,120,16,138.29,15.45a37,37,0,0,1,8.34.63c10.32,2.07,17.85,6.15,23.35,11.25h0a43.6,43.6,0,0,1,12.41,22l0,.08c.2.83.38,1.66.55,2.48v.08c.32,1.62.56,3.21.74,4.77a1.23,1.23,0,0,0,0,.19,70.34,70.34,0,0,1,.42,8.88,232.05,232.05,0,0,0,29.44-18h0c.18-.13.36-.28.56-.4a25.06,25.06,0,0,0,3.85-2.8c.51-.46,1.08-.86,1.63-1.28,1.91-1.47,3.81-2.95,5.67-4.47h0A234.22,234.22,0,0,0,436.75,406.08Z"/><path class="cls-1" d="M220.22,319.32s5.7-2.65,11.54-11.83c6.45-16,3.71-32.18-.95-68.12-4.88-37.6,7.66-78,7.66-78s-15.19,9.25-20.82,68.43c-4.51,47.33,2.16,56.56-3.36,65.66a15.9,15.9,0,0,0,1.3,17.86Z"/><path class="cls-1" d="M319.25,294.39A221.67,221.67,0,0,1,340,309.61a3.18,3.18,0,0,0,5.17-3.13c-1.74-7.52-4.79-18-9.75-27.1Z"/><path class="cls-3" d="M185.07,160.17l-8.58,20.7c-19.65,44.2-28.4,77.5-32.17,95.72h10.13a19.23,19.23,0,0,0,18.93-15.84A449.68,449.68,0,0,1,194.31,184,19.22,19.22,0,0,0,185.07,160.17Z"/><path class="cls-3" d="M437.22,271.62l2.5-7.09c-26.5-12.06-52.6-8.67-71.82,1.29l5.74,9.57a12,12,0,0,0,14.74,5c8.06-3.18,20.5-6.12,33.21-1.53A12.1,12.1,0,0,0,437.22,271.62Z"/><path class="cls-3" d="M271.76,289.45l1.47,8.42a8.83,8.83,0,0,0,9.23,7.32,50.33,50.33,0,0,1,15.89,1.43,8.88,8.88,0,0,0,11-6.57l1.93-8.49A80.2,80.2,0,0,0,271.76,289.45Z"/><path class="cls-4" d="M102.07,89.9A5.78,5.78,0,0,0,106,88.37l2.14-1.93a5.83,5.83,0,0,0-7.74-8.71l-2.27,2a5.83,5.83,0,0,0,3.94,10.13Z"/><path class="cls-4" d="M253.55,301.07a5.82,5.82,0,0,0,2.36-.5,76.22,76.22,0,0,1,60.87-.89,71.92,71.92,0,0,1,10.91,7.65,5.83,5.83,0,1,0,7.49-8.93,80.55,80.55,0,0,0-13.24-9.18l-.24-.1a2.53,2.53,0,0,0-.23-.12,87.66,87.66,0,0,0-70.28.91,5.83,5.83,0,0,0,2.36,11.16Z"/><path class="cls-4" d="M341.15,290a167.28,167.28,0,0,0,19.25-12.54c19.11-14.62,53.74-23.7,88.52-1.24A136.07,136.07,0,0,1,460,285.9a5.83,5.83,0,0,0,8.24-8.24,147.88,147.88,0,0,0-12.45-10.87c-.06-.05-.13-.08-.2-.13l-.18-.14c-39.94-25.9-80-15.3-102.12,1.65a153.94,153.94,0,0,1-17.9,11.65A5.83,5.83,0,0,0,341.15,290Z"/><path class="cls-4" d="M258.91,494.55a237.79,237.79,0,0,0,212.38-129.8,5.83,5.83,0,1,0-10.37-5.32,228.28,228.28,0,0,1-42.87,58.43A129,129,0,0,0,375,372.21c-22.19-14-25.29-33.57-25.42-34.45A5.83,5.83,0,0,0,338,339.34c.14,1,3.73,25.63,30.75,42.72a117.75,117.75,0,0,1,40.51,44,225.4,225.4,0,0,1-39.07,27.81c-1.67-15.2-8.68-34.82-32.39-43.46a57.57,57.57,0,0,0-21.2-3.29c-21.92.54-96.33,1-133.64-15a5.58,5.58,0,0,0-1.93-.47c-.27,0-26.92-1.89-46.08-16.26A16.66,16.66,0,0,1,129.47,356c6.22-15.88,14.39-39.67,18-62.85,0-.11,0-.21,0-.31,0-.42,4.52-42.55,34.34-109.64l.06-.13,18.65-45a30.21,30.21,0,0,1,14-15.24l78.18-40.62a16.28,16.28,0,0,1,20.95,5.28l21.75,32A13.82,13.82,0,0,1,331,139.18l-33.89,20.11c-2.12,1.25-5.13,2.31-7.39.22l-10.61-9.74a5.82,5.82,0,1,0-7.88,8.58l10.6,9.74c5.69,5.25,13.62,5.72,21.22,1.23L315,162.24l1.66,2.27a19.8,19.8,0,0,0,26.86,4.87l9.07-6a25.15,25.15,0,0,0,10.92-16.63,5.83,5.83,0,1,0-11.48-2,13.46,13.46,0,0,1-5.84,8.89l-9.07,5.95a8.13,8.13,0,0,1-11.05-2l-1-1.37L337,149.2A25.48,25.48,0,0,0,345,113L323.27,81a27.93,27.93,0,0,0-35.95-9.06l-78.18,40.61a42,42,0,0,0-19.39,21.13l-18.62,44.9c-30,67.49-34.88,109.55-35.24,113-3.6,23.25-12.36,47.71-17.27,60.23A28.34,28.34,0,0,0,128,384.7c19.88,14.92,45.76,18,51.3,18.49,39.73,16.62,115.28,16.15,137.63,15.6a45.81,45.81,0,0,1,16.93,2.59c19.6,7.14,24.65,24.17,25.13,38.41a227,227,0,0,1-100,23.1C133.8,482.89,32,381.11,32,256A225.76,225.76,0,0,1,70.63,129.35,5.83,5.83,0,0,0,61,122.84,237.35,237.35,0,0,0,20.36,256C20.36,387.54,127.38,494.55,258.91,494.55Z"/><path class="cls-4" d="M150.34,56.72A227.12,227.12,0,0,1,258.91,29.11c100.74,0,190.44,67.55,218.15,164.28,5.2,18.13,2.69,37.36-6.88,52.74a49,49,0,0,1-6.6,8.57,5.83,5.83,0,0,0,8.31,8.17,61.3,61.3,0,0,0,8.19-10.59c11.3-18.17,14.29-40.8,8.19-62.1A240.25,240.25,0,0,0,403.72,66.42a236.31,236.31,0,0,0-144.81-49,238.85,238.85,0,0,0-114.16,29,5.83,5.83,0,1,0,5.59,10.23Z"/><path class="cls-4" d="M261.51,171.52a5.83,5.83,0,0,0-3.21-11.2c-6.62,1.89-11.76.89-15.71-3.07a5.84,5.84,0,0,0-9.69,2.4c-.53,1.7-12.85,42-7.87,80.47l.93,7.12c3.36,25.66,5.21,39.79,2.44,51.63a24,24,0,0,1-11,15.35l-.11.06,2.92,5,3.05,5a35.66,35.66,0,0,0,16.48-22.77c3.25-13.9,1.3-28.78-2.24-55.79l-.92-7.11c-3.42-26.36,2.15-54.58,5.39-67.82C247.67,173.33,254.28,173.59,261.51,171.52Z"/></symbol><symbol id="icon-arrow-left" viewBox="0 0 8 14">
<path d="M7 13L1 7L7 1" stroke="white" stroke-width="2" stroke-linecap="round" stroke-linejoin="round"/>
</symbol><symbol id="icon-arrow-right" viewBox="0 0 8 14">
<path d="M1 13L7 7L1 1" stroke="white" stroke-width="2" stroke-linecap="round" stroke-linejoin="round"/>
</symbol><symbol id="icon-body" viewBox="0 0 512 512"><title>waist male</title><path class="cls-1" d="M453.68,378.83a342.32,342.32,0,0,0-16.26-62.11c-12-32.93-18.09-67.76-16.87-102.8A365.52,365.52,0,0,1,438.83,112a232.74,232.74,0,0,0-365.66,0A365.15,365.15,0,0,1,91.45,213.92c1.22,35-4.85,69.87-16.87,102.8a342.32,342.32,0,0,0-16.26,62.11,232.74,232.74,0,0,0,168.11,108,407.93,407.93,0,0,0,1.1-52.43,38.27,38.27,0,0,0,7.43,4.75,47.51,47.51,0,0,0,42.08,0,38.27,38.27,0,0,0,7.43-4.75,410.14,410.14,0,0,0,1.1,52.43A232.74,232.74,0,0,0,453.68,378.83Z"/><path class="cls-2" d="M141,196.5c8.44,20.81,26.22,59.8,48,79.71H153.16s-19.9-32-18.57-78.54A3.35,3.35,0,0,1,141,196.5Z"/><path class="cls-2" d="M252.36,443.93l-2.49-60.37-23.28-55.15L96.52,276.21l-15.59,21s86.3,54.09,108.12,108.56a54.69,54.69,0,0,0,9,38.34s-2,17-4.92,36a232.42,232.42,0,0,0,33.34,6.75,407.93,407.93,0,0,0,1.1-52.43,38.27,38.27,0,0,0,7.43,4.75A47.34,47.34,0,0,0,252.36,443.93Z"/><path class="cls-3" d="M91.17,352.17l-2.75,9.71a11.71,11.71,0,0,0,4,12.39,391.1,391.1,0,0,1,30,26.73,10,10,0,0,0,16.3-3.44h0a10,10,0,0,0,0-7.4c-3.2-8.09-12-27.48-28.25-43.25A11.69,11.69,0,0,0,91.17,352.17Z"/><path class="cls-3" d="M197.6,103h0a6.69,6.69,0,0,1,5.08-7.42c4.75-1.14,11.81-2,18.91.42a6.71,6.71,0,0,1,4.58,6.19l.08,3.25a6.67,6.67,0,0,1-7.39,6.8c-5.21-.56-12.12-1.72-17.5-4.12A6.56,6.56,0,0,1,197.6,103Z"/><path class="cls-2" d="M370.42,196.5c-8.44,20.81-26.21,59.8-48,79.71H358.3s19.9-32,18.57-78.54A3.35,3.35,0,0,0,370.42,196.5Z"/><path class="cls-2" d="M430.53,297.19l-15.59-21-130.07,52.2-23.28,55.15L259.1,444a47.38,47.38,0,0,0,17.94-4.8,38.27,38.27,0,0,0,7.43-4.75,410.14,410.14,0,0,0,1.1,52.43,232.69,232.69,0,0,0,32.83-6.6c-3-19.08-4.95-36.17-4.95-36.17a54.73,54.73,0,0,0,9-38.34C344.23,351.28,430.53,297.19,430.53,297.19Z"/><path class="cls-3" d="M313.86,103h0a6.69,6.69,0,0,0-5.08-7.42c-4.75-1.14-11.81-2-18.91.42a6.71,6.71,0,0,0-4.58,6.19l-.08,3.25a6.68,6.68,0,0,0,7.4,6.8c5.2-.56,12.11-1.72,17.49-4.12A6.56,6.56,0,0,0,313.86,103Z"/><path class="cls-4" d="M420.47,228.42c-14.08,9.52-62.42,36-164.47,36s-150.39-26.51-164.47-36a271.22,271.22,0,0,1-10.6,68.77C151.07,325,207.31,391.8,207.31,391.8a57,57,0,0,0,20.22,42.63,38.27,38.27,0,0,0,7.43,4.75,47.51,47.51,0,0,0,42.08,0,38.27,38.27,0,0,0,7.43-4.75,57,57,0,0,0,20.22-42.63S360.93,325,431.07,297.19A271.22,271.22,0,0,1,420.47,228.42Z"/><path class="cls-2" d="M361.59,82.09l-4.14-35.57c-3.76-1.83-7.59-3.56-11.46-5.19-8.12,8-21.46,17-40.14,17-33.11,0-49.93-19.4-50.11-19.61h0c-.18.21-17,19.61-50.12,19.61-18.56,0-31.84-8.94-40-16.86Q159.72,44,154,46.79l-4.11,35.3c4.09,65.39,49.84,80.73,79.84,83.7a15.79,15.79,0,0,1,14.2,15.74h0a12.74,12.74,0,0,0,11.62,12.85A12.45,12.45,0,0,0,268.81,182v-.56a15.8,15.8,0,0,1,14-15.73C312.84,162.44,357.55,146.69,361.59,82.09Zm-29.12,30.38c-7.92,26.64-51.09,31.75-51.09,31.75s-22.95,6.49-25.64-15.73v0c-2.69,22.22-25.65,15.73-25.65,15.73s-43.17-5.11-51.09-31.75,12.1-35.09,12.1-35.09a85.49,85.49,0,0,0,19,1.44h0s45.48-.2,45.67,27.74v.09s0,0,0,.08v-.17c.18-27.94,45.66-27.74,45.66-27.74h0a85.49,85.49,0,0,0,19-1.44S340.39,85.82,332.47,112.47Z"/><path class="cls-2" d="M73.17,112a365.43,365.43,0,0,1,17.91,94c9.73-14.84,22.22-41.38,15.28-73.27C99.1,99.36,111.44,77.61,120.23,67A234.41,234.41,0,0,0,73.17,112Z"/><path class="cls-2" d="M421,205a365.6,365.6,0,0,1,17.85-93,234.06,234.06,0,0,0-45.3-43.73c8.68,11,19.81,32.39,12.83,64.45C399.58,163.88,411.36,190,421,205Z"/><path class="cls-5" d="M197,322.39a3.46,3.46,0,0,0-6.75.12l-3.37,15.94a3.45,3.45,0,0,1-5.35,2.13C133.63,307,80.93,297.19,80.93,297.19,151.07,325,207.31,391.8,207.31,391.8,208,371.42,201.37,340.4,197,322.39Z"/><path class="cls-5" d="M430.72,297.19S378,307,330.13,340.58a3.45,3.45,0,0,1-5.35-2.13l-3.37-15.94a3.46,3.46,0,0,0-6.75-.12c-4.38,18-11,49-10.32,69.41l.34.14a.66.66,0,0,0,0-.14s56.1-66.65,126.11-94.5Z"/><path class="cls-3" d="M389.62,357.44a32.79,32.79,0,0,0-10.84,11.37,11.92,11.92,0,0,0-.47,10h0a12.21,12.21,0,0,0,18.25,5.61l7.52-5.14a12.22,12.22,0,0,0,3.75-16.09l-.87-1.54A12.18,12.18,0,0,0,389.62,357.44Z"/><path class="cls-6" d="M139,205.88c0,.15.34,1.55,1,4a5.82,5.82,0,0,0,5.59,4.2,6.11,6.11,0,0,0,1.63-.23,5.84,5.84,0,0,0,4-7.23c-.6-2-.85-3.19-.86-3.2A5.82,5.82,0,1,0,139,205.88Z"/><path class="cls-6" d="M188.8,147a5.83,5.83,0,0,0-6.05,10c13.82,8.39,31.06,13.28,51.22,14.54h.37a5.83,5.83,0,0,0,.36-11.64C216.43,158.72,201,154.39,188.8,147Z"/><path class="cls-6" d="M150.3,76.27a5.84,5.84,0,0,0-6.24,5.39c-.08,1.15-1.89,28.52,15,53a5.82,5.82,0,1,0,9.59-6.61c-14.51-21-13-45.34-13-45.59A5.84,5.84,0,0,0,150.3,76.27Z"/><path class="cls-6" d="M230.68,69.51c-23.11,6.36-39.57,2.52-49.32-1.82a5.82,5.82,0,1,0-4.74,10.64,74.54,74.54,0,0,0,30.56,6.2,100,100,0,0,0,26.59-3.79,5.82,5.82,0,1,0-3.09-11.23Z"/><path class="cls-6" d="M361.6,203.38s-.26,1.18-.86,3.21a5.84,5.84,0,0,0,4,7.23,6.11,6.11,0,0,0,1.63.23,5.82,5.82,0,0,0,5.59-4.2c.71-2.42,1-3.82,1.05-4a5.83,5.83,0,0,0-11.38-2.5Z"/><path class="cls-6" d="M271.85,166a5.83,5.83,0,0,0,5.81,5.47H278c20.17-1.26,37.4-6.15,51.22-14.54a5.83,5.83,0,0,0-6.05-10c-12.19,7.4-27.63,11.73-45.9,12.87A5.82,5.82,0,0,0,271.85,166Z"/><path class="cls-6" d="M344.82,136.19a5.82,5.82,0,0,0,8.1-1.49c16.91-24.52,15.1-51.89,15-53a5.83,5.83,0,1,0-11.62.86c0,.24,1.61,24.39-13,45.57A5.82,5.82,0,0,0,344.82,136.19Z"/><path class="cls-6" d="M304.82,84.53a74.54,74.54,0,0,0,30.56-6.2,5.82,5.82,0,0,0-4.74-10.64c-9.74,4.34-26.21,8.18-49.32,1.82a5.82,5.82,0,1,0-3.09,11.23A100,100,0,0,0,304.82,84.53Z"/><path class="cls-6" d="M256,17.45c-2.55,0-5.09,0-7.64.13-1,0-2,.09-3,.14-1.52.07-3,.13-4.55.22-1.28.08-2.55.2-3.83.3s-2.48.19-3.72.31c-1.41.13-2.8.3-4.2.46-1.11.12-2.21.24-3.32.38-1.46.19-2.92.41-4.39.62-1,.15-2.06.29-3.09.46-1.49.24-3,.5-4.46.77l-3,.54c-1.48.29-3,.6-4.43.91-1,.22-2,.42-3,.65-1.44.32-2.88.67-4.32,1l-3.07.76c-1.39.36-2.78.74-4.17,1.13l-3.2.91c-1.32.39-2.63.79-4,1.2-1.13.36-2.26.71-3.38,1.08s-2.47.83-3.69,1.25-2.4.85-3.6,1.28l-3.42,1.28c-1.27.49-2.54,1-3.8,1.5q-1.59.63-3.15,1.29c-1.34.56-2.67,1.14-4,1.72l-2.9,1.3q-2.07.95-4.11,1.94l-2.74,1.33c-1.38.68-2.74,1.39-4.1,2.1L143,45.86l-1.2.63c-.09,0-.17.12-.26.18-1.49.82-3,1.62-4.46,2.47a5.83,5.83,0,1,0,5.82,10.1c1.87-1.08,3.76-2.11,5.65-3.13.83-.45,1.67-.88,2.5-1.32,1.32-.68,2.64-1.37,4-2l2.54-1.23c1.32-.64,2.65-1.27,4-1.87.9-.42,1.8-.82,2.7-1.21,1.28-.57,2.57-1.13,3.86-1.67q1.47-.62,2.94-1.2c1.22-.5,2.45-1,3.68-1.45l3.2-1.19c1.15-.43,2.31-.84,3.46-1.24s2.31-.79,3.47-1.17,2.17-.7,3.26-1,2.48-.77,3.72-1.14c1-.3,2-.59,3.08-.87,1.31-.37,2.62-.73,3.93-1.07l3-.73c1.36-.34,2.72-.67,4.09-1l2.87-.61c1.4-.3,2.79-.59,4.19-.86,1-.19,1.92-.35,2.88-.52,1.4-.26,2.8-.51,4.21-.73,1-.16,2-.3,3-.44,1.38-.2,2.77-.41,4.16-.59,1.05-.13,2.11-.24,3.17-.36,1.32-.15,2.65-.31,4-.44s2.39-.2,3.58-.29,2.4-.21,3.61-.29c1.43-.09,2.88-.14,4.32-.21l2.9-.14,1.55,0V68A5.83,5.83,0,1,0,262,68V29.18a226.62,226.62,0,0,1,170.33,84.14,371,371,0,0,0-17.56,100.4c-.13,3.85-.16,7.71-.13,11.56-9.27,5.82-28.54,15.76-60.79,23.28q4-6.08,7.38-12.54a5.83,5.83,0,0,0-10.32-5.43A141.58,141.58,0,0,1,337,252c-21.93,3.94-48.69,6.62-81,6.62S197,256,175,252a141.33,141.33,0,0,1-13.9-21.44A5.83,5.83,0,0,0,150.82,236c2.27,4.31,4.75,8.5,7.4,12.56-32.07-7.47-51.34-17.35-60.81-23.3,0-3.85,0-7.71-.13-11.56A371.28,371.28,0,0,0,79.69,113.18a229.8,229.8,0,0,1,23.62-25,5.83,5.83,0,1,0-7.84-8.62A240.34,240.34,0,0,0,68.6,108.39a5.85,5.85,0,0,0-1,5.44l.72,2.19a359.5,359.5,0,0,1,17.27,98.11c1.16,33.5-4.39,67.35-16.52,100.59a354.25,354.25,0,0,0-13.59,47.42,226.92,226.92,0,0,1-.44-211.66,5.83,5.83,0,1,0-10.31-5.43A239.11,239.11,0,0,0,17.45,256c0,131.54,107,238.55,238.55,238.55a236,236,0,0,0,148.48-51.83,5.83,5.83,0,0,0-7.26-9.12,224.07,224.07,0,0,1-106.31,46.65,417.43,417.43,0,0,1-.73-43,63,63,0,0,0,20.27-43.16c8.48-9.65,57.37-63.26,116.88-89q2.15,6.84,4.61,13.65a339.56,339.56,0,0,1,15.47,57.91,5.42,5.42,0,0,0,.24.9q-4.87,7.65-10.39,15a5.83,5.83,0,1,0,9.3,7,236.45,236.45,0,0,0,48-143.52C494.55,124.46,387.54,17.45,256,17.45ZM64.39,377.39a5,5,0,0,0,.2-.76,339.32,339.32,0,0,1,15.47-57.91q2.47-6.81,4.61-13.65c59.5,25.73,108.4,79.34,116.88,89a63,63,0,0,0,20.27,43.16,416.67,416.67,0,0,1-.73,43A227.37,227.37,0,0,1,64.39,377.39ZM256,482.89a227.76,227.76,0,0,1-23.33-1.19c1.06-15,1.15-28.06,1-36.67l.78.33c.43.19.86.38,1.29.55s1,.4,1.5.59l1.29.47c.51.18,1,.34,1.55.5s.85.27,1.28.39,1.07.29,1.61.42.84.22,1.27.31,1.12.24,1.69.34c.4.08.81.17,1.21.23.6.11,1.21.18,1.81.26l1.12.15c.7.08,1.4.13,2.09.18l.85.07a53.5,53.5,0,0,0,5.94,0l.79-.07c.72-.05,1.44-.1,2.16-.18l1.05-.14c.63-.08,1.26-.16,1.88-.27.39-.06.78-.14,1.17-.22.58-.11,1.16-.22,1.74-.35l1.21-.3c.56-.14,1.11-.27,1.66-.43l1.24-.38c.54-.16,1.07-.33,1.6-.52s.83-.3,1.24-.45,1-.39,1.56-.61l1.23-.52.81-.35c-.13,8.62,0,21.65,1,36.69A231.25,231.25,0,0,1,256,482.89Zm54.92-106.63A96.51,96.51,0,0,1,313,361a5.82,5.82,0,0,0-11.26-3c-.13.49-3.19,12.22-2.87,33.73h0A50.79,50.79,0,0,1,281,429.77l-.23.18a32.39,32.39,0,0,1-6.29,4,41.75,41.75,0,0,1-36.9,0,32.39,32.39,0,0,1-6.29-4l-.23-.18a51.1,51.1,0,0,1-17.89-38c.32-21.53-2.74-33.27-2.87-33.76A5.82,5.82,0,0,0,199,361a96.63,96.63,0,0,1,2.07,15.3C182,356.17,139.23,315.53,87.93,293.77a276.53,276.53,0,0,0,9-55.24c13.22,7.34,36.78,17.62,73.48,24.48l.25.05c23.05,4.29,51.26,7.22,85.31,7.22s62.12-2.93,85.13-7.21l.56-.1c36.74-6.89,60.29-17.2,73.35-24.44a276.53,276.53,0,0,0,9,55.24C372.77,315.53,330,356.17,310.92,376.26Zm145.6-13.94a352.83,352.83,0,0,0-13.63-47.6c-12.13-33.25-17.68-67.09-16.52-100.59A359.58,359.58,0,0,1,441,124.72a226.93,226.93,0,0,1,15.56,237.6Z"/><path class="cls-6" d="M256.36,137.48a5.83,5.83,0,0,0,5.83-5.83V93.29a5.83,5.83,0,1,0-11.66,0v38.36A5.83,5.83,0,0,0,256.36,137.48Z"/><path class="cls-6" d="M250.17,187.49a5.83,5.83,0,1,0,11.66,0v-9.71a5.83,5.83,0,1,0-11.66,0Z"/></symbol><symbol id="icon-eye" viewBox="0 0 512 512"><title>eye</title><path class="cls-1" d="M88,311.42s90.47-184,306.12-88.82C394.08,222.6,351.53,427.8,88,311.42Z"/><path class="cls-2" d="M385.49,248l.31-.72c.36-.85.71-1.69,1-2.51l.19-.44c1.18-2.93,2.19-5.64,3.05-8.09.06-.19.12-.37.19-.56.2-.6.41-1.19.59-1.75.08-.25.16-.47.23-.71l.47-1.43c.07-.25.15-.48.22-.72.13-.42.26-.83.37-1.22s.14-.46.21-.69.21-.72.31-1.06.11-.41.17-.61.17-.62.25-.92l.15-.52c.07-.28.14-.52.2-.77s.08-.3.11-.43.11-.43.15-.62l.09-.34c0-.18.07-.32.11-.46s0-.16.05-.23l.07-.3,0-.12,0-.14c-2.4-1-4.77-2.06-7.13-3l-1.49-.62c-2.32-1-4.63-1.9-6.93-2.79l-.82-.32c-2.21-.85-4.4-1.68-6.58-2.47l-.85-.32q-3.52-1.28-7-2.45l-.8-.27q-7.19-2.42-14.17-4.41l-.45-.13q-7.22-2-14.2-3.67h0C161.4,162.09,88,311.42,88,311.42q3.36,1.49,6.66,2.89c26-33.67,96.39-102.25,226.69-80.9h0c3.47.57,7,1.18,10.52,1.88A29.53,29.53,0,0,1,334,289.74a8.34,8.34,0,0,0-3.9,11.34,101.48,101.48,0,0,0,7,11.81c24.75-19.91,39.36-44.62,47.58-63.16h0C385,249.13,385.24,248.55,385.49,248Z"/><path class="cls-3" d="M289.67,195.77c-56.31-3-99.41,15.45-130.81,38.54-.09,1.5-.16,3-.16,4.54A72.77,72.77,0,0,0,162,260.66a26.87,26.87,0,1,1,31.38,40.11,72.57,72.57,0,0,0,96.25-105Z"/><path class="cls-4" d="M303.41,231a72.18,72.18,0,0,0-13.74-35.2c-56.31-3-99.41,15.45-130.81,38.54-.09,1.5-.16,3-.16,4.54a72.55,72.55,0,0,0,2.39,18.47q5-2.79,10.38-5.4a25.41,25.41,0,0,1,3.07-1.46C207.46,235.08,250,225.31,303.41,231Z"/><path class="cls-5" d="M249.85,309a34.89,34.89,0,0,0-43.52-49.2,26.82,26.82,0,0,1-12.91,41A72.66,72.66,0,0,0,249.85,309Z"/><circle class="cls-1" cx="250.55" cy="244.57" r="20.14"/><path class="cls-6" d="M256,17.45a238.85,238.85,0,0,0-114.16,29,5.83,5.83,0,1,0,5.59,10.23A227.2,227.2,0,0,1,256,29.11c125.11,0,226.89,101.78,226.89,226.89S381.11,482.89,256,482.89,29.11,381.11,29.11,256a225.83,225.83,0,0,1,38.6-126.65,5.82,5.82,0,1,0-9.66-6.51A237.35,237.35,0,0,0,17.45,256c0,131.54,107,238.55,238.55,238.55S494.55,387.54,494.55,256,387.54,17.45,256,17.45Z"/><path class="cls-6" d="M103.08,88.38l2.15-1.94a5.83,5.83,0,1,0-7.75-8.7c-.76.67-1.51,1.35-2.26,2a5.83,5.83,0,0,0,7.86,8.61Z"/><path class="cls-6" d="M385.56,253.64a5.83,5.83,0,1,0-1.14-11.55,6.85,6.85,0,0,0-1.09.33,7.4,7.4,0,0,0-1,.54,5.67,5.67,0,0,0-.89.73,5.83,5.83,0,0,0,4.12,9.95Z"/><path class="cls-6" d="M398.63,287.5a5.83,5.83,0,0,0,6.31-9.8,47.84,47.84,0,0,0-24.69-8.05,5.81,5.81,0,0,0-10.8-3c-1.36,2.26-2.79,4.52-4.29,6.76l0,.05c-34.68,52.18-106.33,98.43-253,41.91a5.83,5.83,0,0,0-4.19,10.88c45.62,17.57,87.09,26.38,124,26.38q33.48,0,61.87-9.68a157.82,157.82,0,0,0,18.85-7.85c2.7.95,12.43,5.25,18.28,19.28a5.83,5.83,0,0,0,5.38,3.59,5.72,5.72,0,0,0,2.24-.46,5.82,5.82,0,0,0,3.14-7.62c-4.63-11.09-11.35-17.66-16.93-21.47a156.49,156.49,0,0,0,23.91-18c2.77,0,13.53.72,23.78,11.81a5.83,5.83,0,0,0,8.56-7.91,47.9,47.9,0,0,0-22.17-14.05,168.35,168.35,0,0,0,14.65-18.45C377.09,281,387,280,398.63,287.5Z"/><path class="cls-6" d="M81.82,337.6a6,6,0,0,0,.94.07,5.83,5.83,0,0,0,5.75-4.9,156.19,156.19,0,0,1,5-19.32c2.48-4.77,21.7-40.05,59.57-69.66a78.61,78.61,0,0,0,3.44,18.62,5.83,5.83,0,0,0,10.43,1.46,21,21,0,1,1,24.57,31.41,5.83,5.83,0,0,0-1.1,10.46,78.42,78.42,0,0,0,116.39-88.09,5.83,5.83,0,1,0-11.22,3.15,66.77,66.77,0,0,1-90,79.64A32.7,32.7,0,0,0,165.29,249a68,68,0,0,1-.76-10.1c0-.47,0-1.12,0-1.85,0-.47,0-1,0-1.57,48.94-33.25,105.31-42.46,168.17-27.64a5.43,5.43,0,0,0,1.19.35l.94.15a341.53,341.53,0,0,1,56.92,19.64l.08,0,.08,0a264.2,264.2,0,0,1,26.79,13,5.83,5.83,0,0,0,5.74-10.14,273.06,273.06,0,0,0-28.13-13.69c-7.27-3.21-14.47-6.1-21.63-8.75,13.07-1.81,27.26-5.86,39.33-14.23a5.83,5.83,0,1,0-6.64-9.58c-27.77,19.26-71,12.08-71.48,12h-.14c-28.12-6.61-55.23-8.69-81-6.12a207,207,0,0,0-97.84,36,237.75,237.75,0,0,0-38.48,33.18c2.66-4.19,5.52-8.41,8.63-12.63,41.57-56.3,103.82-84.55,185-83.94h0a5.83,5.83,0,0,0,0-11.65c-46.8-.31-88.34,8.84-123.39,27.31a208.9,208.9,0,0,0-71.38,61.77C84.67,285,77.3,329.07,77,330.92A5.83,5.83,0,0,0,81.82,337.6Z"/><path class="cls-6" d="M359.38,129.67a5.84,5.84,0,0,0-7.39,3.65c-8.35,24.63-32.47,35.19-32.76,35.32a5.83,5.83,0,0,0,4.54,10.73,76.93,76.93,0,0,0,21.16-14.46c10,1,20.34,2.34,30.81,4.11a5.36,5.36,0,0,0,1,.08,5.83,5.83,0,0,0,1-11.57c-7.91-1.34-15.74-2.45-23.43-3.34A66.34,66.34,0,0,0,363,137.06,5.83,5.83,0,0,0,359.38,129.67Z"/><path class="cls-6" d="M242.43,232.78a5.83,5.83,0,1,0-6.62-9.59A26,26,0,1,0,276,249.8a5.83,5.83,0,1,0-11.42-2.33,14.31,14.31,0,1,1-22.14-14.69Z"/><path class="cls-6" d="M260.26,234.06a5.83,5.83,0,0,0,7.9-8.57c-.58-.53-1.19-1.05-1.82-1.53a5.83,5.83,0,0,0-7.1,9.24C259.59,233.48,259.93,233.76,260.26,234.06Z"/></symbol></svg>